<?xml version="1.0" standalone="no"?>
<!DOCTYPE svg PUBLIC "-//W3C//DTD SVG 20010904//EN"
 "http://www.w3.org/TR/2001/REC-SVG-20010904/DTD/svg10.dtd">
<svg version="1.0" xmlns="http://www.w3.org/2000/svg"
 width="260.000000pt" height="260.000000pt" viewBox="0 0 260.000000 260.000000"
 preserveAspectRatio="xMidYMid meet">
<metadata>
Created by potrace 1.14, written by Peter Selinger 2001-2017
</metadata>
<g transform="translate(0.000000,260.000000) scale(0.100000,-0.100000)"
fill="#000000" stroke="none">
<path d="M800 2398 c-58 -24 -92 -32 -150 -33 -45 -1 -87 -8 -105 -17 -35 -19
-141 -35 -279 -43 -55 -4 -112 -13 -127 -20 -57 -30 -56 -121 2 -150 32 -17
115 -19 229 -5 41 4 77 6 79 4 3 -2 -5 -35 -17 -72 -61 -188 -107 -554 -88
-685 10 -66 47 -107 95 -107 27 0 44 7 61 25 22 23 23 32 25 192 2 142 7 191
33 321 36 175 96 359 121 366 9 3 45 12 81 20 81 18 189 66 215 95 29 33 25
88 -9 117 -36 32 -74 30 -166 -8z"/>
<path d="M932 1948 c-28 -14 -110 -124 -148 -198 -24 -47 -28 -70 -32 -159 -8
-184 36 -282 133 -296 35 -6 54 -2 97 18 50 23 255 164 306 211 40 35 62 90
62 151 0 115 -32 147 -220 225 -140 58 -165 64 -198 48z m161 -230 c66 -27 77
-36 70 -54 -5 -15 -209 -164 -224 -164 -5 0 -9 30 -9 68 0 82 22 130 71 154
42 21 32 22 92 -4z"/>
<path d="M1680 1803 c-44 -13 -63 -32 -92 -92 -17 -36 -48 -91 -69 -122 -59
-88 -102 -183 -149 -324 -23 -71 -44 -132 -46 -134 -2 -2 -16 2 -30 9 -88 48
-278 -65 -319 -190 -25 -75 -18 -259 13 -316 41 -80 126 -121 195 -95 38 15
158 124 208 189 58 76 77 127 93 244 15 107 76 310 122 402 14 28 47 85 74
126 27 41 61 105 76 142 25 63 26 69 13 104 -15 39 -58 66 -89 57z m-384 -859
c-3 -25 -16 -60 -27 -77 -27 -40 -111 -127 -121 -127 -13 0 -9 133 5 157 15
27 56 59 99 78 49 21 51 19 44 -31z"/>
<path d="M1621 903 c-50 -26 -74 -64 -72 -112 3 -58 2 -76 -5 -157 -8 -95 9
-131 90 -191 93 -68 153 -95 221 -101 76 -6 102 7 173 82 93 98 112 177 68
273 -32 69 -89 109 -239 168 -140 56 -188 64 -236 38z m239 -236 c81 -40 89
-65 36 -116 -34 -33 -34 -33 -68 -17 -46 22 -108 74 -108 91 0 18 49 75 63 75
7 0 41 -15 77 -33z"/>
</g>
</svg>
